<svg width="304" height="304" viewBox="0 0 304 304" fill="none" xmlns="http://www.w3.org/2000/svg">
<rect width="304" height="304" fill="#CC1615"/>
<path fill-rule="evenodd" clip-rule="evenodd" d="M100 84C91.1634 84 84 91.1634 84 100V204C84 212.837 91.1634 220 100 220H204C212.837 220 220 212.837 220 204V100C220 91.1634 212.837 84 204 84H100ZM135 184.909L183 157.196C187 154.887 187 149.113 183 146.804L135 119.091C131 116.782 126 119.668 126 124.287L126 179.713C126 184.332 131 187.218 135 184.909Z" fill="white"/>
</svg>
