<svg width="304" height="304" viewBox="0 0 304 304" fill="none" xmlns="http://www.w3.org/2000/svg">
<rect width="304" height="304" fill="black"/>
<path d="M91.7021 50.8105L167.89 34.0928L180.964 93.6752L151.229 140.128L104.776 110.393L91.7021 50.8105Z" fill="#325567"/>
<path d="M57.7178 206.206L41 130.018L100.582 116.944L147.035 146.679L117.3 193.131L57.7178 206.206Z" fill="#325567"/>
<path d="M136.926 256.907L213.113 240.189L200.039 180.607L153.586 150.872L123.852 197.325L136.926 256.907Z" fill="#325567"/>
<path d="M263.814 160.982L247.097 84.7946L187.514 97.8687L157.779 144.321L204.232 174.056L263.814 160.982Z" fill="#325567"/>
<path d="M101.016 55.9333L161.575 42.6449L172.248 91.2876L148.656 128.407L111.689 104.576L101.016 55.9333Z" fill="#95C4D4"/>
<path d="M62.8408 196.891L49.5523 136.332L98.1951 125.658L135.314 149.251L111.484 186.217L62.8408 196.891Z" fill="#95C4D4"/>
<path d="M143.239 248.355L203.798 235.067L193.125 186.424L156.158 162.593L132.566 199.713L143.239 248.355Z" fill="#95C4D4"/>
<path d="M255.263 154.668L241.974 94.1088L193.332 104.782L169.501 141.749L206.62 165.342L255.263 154.668Z" fill="#95C4D4"/>
</svg>
