<svg width="1690" height="179" viewBox="0 0 1690 179" fill="none" xmlns="http://www.w3.org/2000/svg">
<path d="M0 4.33065H63.7106C71.1113 4.33065 78.512 4.89203 85.9127 6.01478C93.4743 6.97714 100.232 9.06227 106.184 12.2702C112.137 15.3177 116.964 19.6483 120.664 25.2621C124.364 30.8759 126.215 38.3342 126.215 47.6371C126.215 57.2607 123.479 65.2805 118.009 71.6962C112.7 77.9516 105.621 82.4426 96.7725 85.1693V85.6505C102.403 86.4525 107.471 88.0564 111.976 90.4624C116.642 92.7079 120.584 95.6752 123.801 99.3642C127.18 102.893 129.754 107.063 131.524 111.875C133.293 116.687 134.178 121.819 134.178 127.273C134.178 136.255 132.248 143.793 128.386 149.888C124.525 155.823 119.538 160.635 113.424 164.324C107.31 168.013 100.392 170.66 92.6699 172.263C85.1083 173.867 77.5467 174.669 69.9851 174.669H0V4.33065ZM37.6472 72.418H64.9172C67.8131 72.418 70.6286 72.0972 73.3637 71.4556C76.2596 70.8141 78.8338 69.7715 81.0862 68.3279C83.3386 66.8844 85.1083 64.9597 86.3954 62.5538C87.8434 60.1478 88.5673 57.2607 88.5673 53.8925C88.5673 50.3638 87.7629 47.4767 86.1541 45.2312C84.7061 42.8253 82.7755 40.9807 80.3622 39.6976C77.9489 38.4144 75.2139 37.5323 72.1571 37.0511C69.1002 36.4095 66.1239 36.0887 63.2279 36.0887H37.6472V72.418ZM37.6472 142.911H71.4331C74.329 142.911 77.2249 142.59 80.1209 141.949C83.1777 141.307 85.9127 140.185 88.326 138.581C90.7393 136.977 92.6699 134.892 94.1179 132.325C95.7267 129.759 96.5312 126.631 96.5312 122.942C96.5312 118.932 95.4854 115.724 93.3939 113.319C91.4633 110.752 88.9696 108.828 85.9127 107.544C82.8559 106.261 79.5578 105.379 76.0183 104.898C72.4788 104.417 69.1807 104.176 66.1238 104.176H37.6472V142.911Z" fill="white"/>
<path d="M324.692 108.988C324.692 119.093 323.163 128.396 320.106 136.897C317.05 145.397 312.464 152.776 306.351 159.031C300.398 165.286 292.917 170.178 283.907 173.707C274.898 177.236 264.521 179 252.776 179C240.87 179 230.413 177.236 221.403 173.707C212.394 170.178 204.832 165.286 198.718 159.031C192.766 152.776 188.261 145.397 185.204 136.897C182.147 128.396 180.619 119.093 180.619 108.988V4.33065H218.266V107.544C218.266 112.837 219.07 117.729 220.679 122.22C222.449 126.711 224.862 130.641 227.919 134.009C230.976 137.217 234.596 139.784 238.779 141.708C243.123 143.473 247.788 144.355 252.776 144.355C257.763 144.355 262.349 143.473 266.532 141.708C270.715 139.784 274.335 137.217 277.391 134.009C280.448 130.641 282.781 126.711 284.39 122.22C286.16 117.729 287.044 112.837 287.044 107.544V4.33065H324.692V108.988Z" fill="white"/>
<path d="M383.144 4.33065H420.791V174.669H383.144V4.33065Z" fill="white"/>
<path d="M480.616 4.33065H518.263V140.024H588.007V174.669H480.616V4.33065Z" fill="white"/>
<path d="M632.92 4.33065H689.391C703.066 4.33065 716.017 5.85439 728.245 8.90189C740.633 11.9494 751.412 16.9216 760.583 23.8185C769.753 30.5551 776.993 39.3768 782.302 50.2836C787.772 61.1904 790.507 74.4229 790.507 89.9812C790.507 103.775 787.853 115.965 782.544 126.551C777.395 136.977 770.397 145.798 761.548 153.016C752.699 160.073 742.483 165.447 730.899 169.136C719.316 172.825 707.169 174.669 694.459 174.669H632.92V4.33065ZM670.567 140.024H690.115C698.803 140.024 706.847 139.142 714.248 137.378C721.809 135.613 728.325 132.726 733.795 128.716C739.265 124.546 743.529 119.173 746.586 112.597C749.803 105.86 751.412 97.6801 751.412 88.0564C751.412 79.7159 749.803 72.4982 746.586 66.4032C743.529 60.1478 739.346 55.0152 734.037 51.0054C728.727 46.9955 722.453 44.0282 715.213 42.1035C708.134 40.0184 700.653 38.9758 692.769 38.9758H670.567V140.024Z" fill="white"/>
<path d="M921.635 45.953C918.578 42.1035 914.395 39.2966 909.086 37.5322C903.937 35.6075 899.03 34.6452 894.365 34.6452C891.63 34.6452 888.814 34.966 885.918 35.6075C883.022 36.2491 880.287 37.2917 877.713 38.7352C875.139 40.0184 873.047 41.7827 871.438 44.0282C869.83 46.2737 869.025 49.0004 869.025 52.2083C869.025 57.341 870.956 61.2706 874.817 63.9973C878.678 66.724 883.505 69.0497 889.297 70.9745C895.249 72.8992 901.604 74.8239 908.362 76.7487C915.119 78.6734 921.393 81.4001 927.185 84.9288C933.138 88.4574 938.045 93.1891 941.906 99.1236C945.768 105.058 947.698 112.998 947.698 122.942C947.698 132.405 945.928 140.666 942.389 147.723C938.849 154.78 934.023 160.635 927.909 165.286C921.956 169.938 914.958 173.386 906.914 175.632C899.03 177.877 890.664 179 881.816 179C870.714 179 860.418 177.316 850.926 173.948C841.433 170.579 832.585 165.126 824.38 157.587L851.167 128.235C855.028 133.368 859.855 137.378 865.647 140.265C871.599 142.991 877.713 144.355 883.988 144.355C887.044 144.355 890.101 144.034 893.158 143.392C896.376 142.59 899.191 141.468 901.604 140.024C904.179 138.581 906.19 136.736 907.638 134.491C909.247 132.245 910.051 129.599 910.051 126.551C910.051 121.418 908.04 117.409 904.018 114.522C900.156 111.474 895.249 108.908 889.297 106.823C883.344 104.737 876.909 102.652 869.99 100.567C863.072 98.4821 856.637 95.6752 850.684 92.1465C844.732 88.6178 839.744 83.9664 835.722 78.1922C831.861 72.418 829.93 64.7993 829.93 55.336C829.93 46.1935 831.7 38.1738 835.239 31.2769C838.94 24.3799 843.766 18.6057 849.719 13.9543C855.833 9.30286 862.831 5.85439 870.715 3.60887C878.598 1.20296 886.723 0 895.089 0C904.742 0 914.073 1.36335 923.083 4.09005C932.092 6.81675 940.217 11.388 947.457 17.8038L921.635 45.953Z" fill="white"/>
<path d="M1032.94 37.5322H984.191V4.33065H1119.34V37.5322H1070.59V174.669H1032.94V37.5322Z" fill="white"/>
<path d="M1153.42 89.5C1153.42 75.8665 1155.67 63.5161 1160.17 52.4489C1164.84 41.3817 1171.27 31.9987 1179.48 24.2997C1187.68 16.4404 1197.42 10.4256 1208.68 6.25537C1219.94 2.08512 1232.25 0 1245.6 0C1258.96 0 1271.26 2.08512 1282.53 6.25537C1293.79 10.4256 1303.52 16.4404 1311.73 24.2997C1319.93 31.9987 1326.29 41.3817 1330.79 52.4489C1335.46 63.5161 1337.79 75.8665 1337.79 89.5C1337.79 103.134 1335.46 115.484 1330.79 126.551C1326.29 137.618 1319.93 147.082 1311.73 154.941C1303.52 162.64 1293.79 168.574 1282.53 172.745C1271.26 176.915 1258.96 179 1245.6 179C1232.25 179 1219.94 176.915 1208.68 172.745C1197.42 168.574 1187.68 162.64 1179.48 154.941C1171.27 147.082 1164.84 137.618 1160.17 126.551C1155.67 115.484 1153.42 103.134 1153.42 89.5ZM1192.51 89.5C1192.51 97.5197 1193.72 104.898 1196.13 111.634C1198.7 118.211 1202.32 123.985 1206.99 128.957C1211.66 133.769 1217.21 137.538 1223.64 140.265C1230.24 142.991 1237.56 144.355 1245.6 144.355C1253.65 144.355 1260.89 142.991 1267.32 140.265C1273.92 137.538 1279.55 133.769 1284.21 128.957C1288.88 123.985 1292.42 118.211 1294.83 111.634C1297.41 104.898 1298.69 97.5197 1298.69 89.5C1298.69 81.6407 1297.41 74.3427 1294.83 67.6062C1292.42 60.8696 1288.88 55.0954 1284.21 50.2836C1279.55 45.3114 1273.92 41.4619 1267.32 38.7352C1260.89 36.0085 1253.65 34.6452 1245.6 34.6452C1237.56 34.6452 1230.24 36.0085 1223.64 38.7352C1217.21 41.4619 1211.66 45.3114 1206.99 50.2836C1202.32 55.0954 1198.7 60.8696 1196.13 67.6062C1193.72 74.3427 1192.51 81.6407 1192.51 89.5Z" fill="white"/>
<path d="M1387.51 4.33065H1453.63C1462.32 4.33065 1470.53 5.21282 1478.25 6.97715C1486.13 8.58109 1492.97 11.388 1498.76 15.3978C1504.72 19.2473 1509.38 24.5403 1512.76 31.2769C1516.3 37.8531 1518.07 46.1134 1518.07 56.0578C1518.07 68.0874 1514.93 78.3526 1508.66 86.8535C1502.38 95.194 1493.21 100.487 1481.15 102.733L1524.58 174.669H1479.46L1443.74 106.582H1425.16V174.669H1387.51V4.33065ZM1425.16 74.8239H1447.36C1450.74 74.8239 1454.28 74.7437 1457.98 74.5833C1461.84 74.2626 1465.3 73.5408 1468.36 72.418C1471.41 71.1349 1473.91 69.2101 1475.84 66.6438C1477.93 64.0775 1478.97 60.4686 1478.97 55.8172C1478.97 51.4866 1478.09 48.0381 1476.32 45.4718C1474.55 42.9055 1472.3 40.9807 1469.56 39.6976C1466.83 38.254 1463.69 37.2917 1460.15 36.8105C1456.61 36.3293 1453.15 36.0887 1449.77 36.0887H1425.16V74.8239Z" fill="white"/>
<path d="M1569.58 4.33065H1685.66V38.9758H1607.22V70.7339H1681.31V105.379H1607.22V140.024H1690V174.669H1569.58V4.33065Z" fill="white"/>
</svg>
