<svg width="160" height="156" viewBox="0 0 160 156" fill="none" xmlns="http://www.w3.org/2000/svg">
<path d="M21.3494 146.369C12.7313 141.146 8.42223 138.534 7.60259 135.397C7.33788 134.384 7.33788 133.352 7.60259 132.339C8.42223 129.203 12.7313 126.591 21.3494 121.368C29.9675 116.145 34.2765 113.533 39.4516 113.036C41.1229 112.876 42.8254 112.876 44.4967 113.036C49.6718 113.533 53.9808 116.145 62.5989 121.368C71.217 126.591 75.5261 129.203 76.3457 132.339C76.6104 133.352 76.6104 134.384 76.3457 135.397C75.5261 138.534 71.217 141.146 62.5989 146.369C53.9808 151.592 49.6718 154.204 44.4967 154.701C42.8254 154.861 41.1229 154.861 39.4516 154.701C34.2765 154.204 29.9675 151.592 21.3494 146.369Z" fill="url(#paint0_linear)"/>
<path d="M21.3494 146.369C12.7313 141.146 8.42223 138.534 7.60259 135.397C7.33788 134.384 7.33788 133.352 7.60259 132.339C8.42223 129.203 12.7313 126.591 21.3494 121.368C29.9675 116.145 34.2765 113.533 39.4516 113.036C41.1229 112.876 42.8254 112.876 44.4967 113.036C49.6718 113.533 53.9808 116.145 62.5989 121.368C71.217 126.591 75.5261 129.203 76.3457 132.339C76.6104 133.352 76.6104 134.384 76.3457 135.397C75.5261 138.534 71.217 141.146 62.5989 146.369C53.9808 151.592 49.6718 154.204 44.4967 154.701C42.8254 154.861 41.1229 154.861 39.4516 154.701C34.2765 154.204 29.9675 151.592 21.3494 146.369Z" fill="white" fill-opacity="0.6"/>
<path d="M7.40405 130.416H76.5709V133.749H7.40405V130.416Z" fill="url(#paint1_linear)"/>
<path d="M7.40405 130.416H76.5709V133.749H7.40405V130.416Z" fill="white" fill-opacity="0.6"/>
<rect width="48.2346" height="48.2346" rx="16" transform="matrix(0.855186 -0.518321 0.855186 0.518321 0.737305 130.001)" fill="white"/>
<path fill-rule="evenodd" clip-rule="evenodd" d="M21.5981 130.001C21.5981 131.216 23.2106 132.193 26.4357 134.148L35.1454 139.427C38.3705 141.381 39.983 142.359 41.9868 142.359C43.9907 142.359 45.6032 141.381 48.8283 139.427L57.538 134.148C60.7631 132.193 62.3756 131.216 62.3756 130.001C62.3756 128.787 60.7631 127.809 57.5379 125.855L48.8283 120.576C45.6032 118.621 43.9907 117.644 41.9868 117.644C39.983 117.644 38.3705 118.621 35.1453 120.576L26.4357 125.855C23.2106 127.809 21.5981 128.787 21.5981 130.001ZM46.7011 127.144C49.3047 128.722 49.3047 131.28 46.7011 132.858C44.0975 134.436 39.8762 134.436 37.2726 132.858C34.669 131.28 34.669 128.722 37.2726 127.144C39.8762 125.566 44.0975 125.566 46.7011 127.144ZM49.0582 125.715C52.9636 128.082 52.9636 131.92 49.0582 134.287C45.1528 136.654 38.8209 136.654 34.9155 134.287C31.0101 131.92 31.0101 128.082 34.9155 125.715C38.8209 123.348 45.1528 123.348 49.0582 125.715Z" fill="url(#paint2_linear)"/>
<path d="M116.062 93.6219C114.913 87.6377 113.765 83.3534 113.765 83.3534C115.671 82.1532 117.785 78.0297 117.785 78.0297C117.785 78.0297 114.666 78.1044 115.442 76.6457C120.8 76.0714 123.005 70.673 123.005 70.673C123.005 70.673 120.403 70.7706 119.915 70.0355C124.102 68.6112 124.395 66.3026 124.395 66.3026C124.395 66.3026 119.72 67.7957 116.929 63.9594C127.485 55.0061 142.939 29.4729 141.98 18.5498C128.553 25.2633 96.8458 31.6036 96.8458 31.6036C95.3539 31.1515 93.9344 30.4881 92.6304 29.6337C97.3684 29.157 101.687 23.8907 101.687 23.8907C101.687 23.8907 77.917 23.3566 57.8798 29.6337L59.2638 29.2087C59.2638 29.2087 42.8504 17.5907 37.0902 12.1521C31.33 6.71353 26.2188 0 22.8074 0C19.3961 0 22.4858 48.1318 39.1175 67.1927C36.3436 67.8359 31.0141 67.566 31.0141 67.566C31.0141 67.566 42.0751 70.7132 35.0687 74.4978C43.2754 72.2006 39.6631 82.492 39.6631 82.492L41.3859 83.0663C41.3859 83.0663 27.4363 124.904 46.6235 130.021C49.7247 141.386 56.9609 139.054 57.874 133.019C57.874 133.019 80.1969 139.91 97.3856 133.696L97.5637 133.65C98.8616 137.952 107.252 137.946 110.198 132.1C113.713 133.174 157.767 146.187 159.381 121.55C161.046 95.9191 116.062 93.6219 116.062 93.6219Z" fill="#F9B400"/>
<g style="mix-blend-mode:multiply" opacity="0.2">
<path fill-rule="evenodd" clip-rule="evenodd" d="M36.6467 114.649C38.8966 119.07 40.9564 122.48 41.9258 122.48C43.9933 122.48 44.893 116.354 45.0845 113.291C45.2759 121.14 46.9797 137.01 52.2632 137.699C57.5467 138.388 55.6133 120.949 53.9861 112.143H56.2833C56.5704 117.694 58.0062 129.257 61.4519 131.095C65.7592 133.392 87.0081 137.986 95.6226 123.342C97.337 120.427 98.4742 118.025 99.3233 116.232L99.3233 116.232L99.3233 116.232C100.208 114.364 100.78 113.157 101.366 112.717C102.514 111.856 98.2069 132.53 98.2069 132.53C98.1445 133.654 98.4809 135.387 99.8685 136.14C98.7557 135.634 97.9088 134.794 97.5636 133.65L97.3856 133.696C80.1969 139.91 57.874 133.019 57.874 133.019C56.9609 139.054 49.7247 141.386 46.6235 130.021C39.9467 128.24 37.2825 122.013 36.6467 114.649ZM122.412 66.5871C123.573 66.5651 124.395 66.3025 124.395 66.3025C124.395 66.3025 124.102 68.6112 119.915 70.0354C120.403 70.7705 123.005 70.6729 123.005 70.6729C123.005 70.6729 120.8 76.0713 115.441 76.6456C114.666 78.1043 117.785 78.0296 117.785 78.0296C117.785 78.0296 115.671 82.1531 113.765 83.3534C113.765 83.3534 114.913 87.6376 116.062 93.6218C116.062 93.6218 116.452 93.6417 117.158 93.6985L116.01 94.0525L117.446 103.816C117.926 103.816 118.526 103.793 119.223 103.768L119.223 103.768C122.419 103.65 127.672 103.456 132.952 104.964L138.695 106.687C133.973 107.671 132.891 108.385 135.725 109.753C131.428 108.583 127.289 107.836 124.05 107.836C117.159 107.836 111.783 112.153 111.783 116.277C111.783 130.346 152.784 130.922 158.676 123.547C158.833 123.535 158.992 123.522 159.151 123.508C155.362 145.477 113.616 133.144 110.198 132.1C108.204 136.056 103.717 137.338 100.622 136.42C101.272 136.567 102.083 136.543 103.088 136.263C107.223 135.115 106.917 119.704 106.247 112.143C107.97 110.707 111.416 105.309 111.416 95.2011C111.416 85.0934 112.373 81.9922 112.852 81.7051L114.862 79.6951L113.713 76.5364L119.743 72.8035L117.733 69.0706L121.753 67.3477L122.412 66.5871Z" fill="#A699DC"/>
</g>
<path opacity="0.6" d="M65.0984 63.052C75.6286 63.052 84.165 61.1031 84.165 58.6989C84.165 56.2947 75.6286 54.3457 65.0984 54.3457C54.5682 54.3457 46.0317 56.2947 46.0317 58.6989C46.0317 61.1031 54.5682 63.052 65.0984 63.052Z" fill="url(#paint3_radial)"/>
<path opacity="0.6" d="M98.8099 63.052C107.069 63.052 113.765 61.1031 113.765 58.6989C113.765 56.2947 107.069 54.3457 98.8099 54.3457C90.5507 54.3457 83.8552 56.2947 83.8552 58.6989C83.8552 61.1031 90.5507 63.052 98.8099 63.052Z" fill="url(#paint4_radial)"/>
<path d="M41.381 58.9777C41.6222 59.1327 40.7206 42.6045 50.5698 33.3411C50.9162 33.0134 51.1814 32.6093 51.344 32.161C51.5066 31.7127 51.5623 31.2326 51.5065 30.759C51.4507 30.2854 51.285 29.8314 51.0227 29.4331C50.7604 29.0349 50.4086 28.7035 49.9955 28.4653C42.4262 24.1925 34.8053 16.4855 30.4177 11.6556C30.1606 11.3734 29.8206 11.18 29.4466 11.1034C29.0726 11.0267 28.6839 11.0708 28.3365 11.2291C27.9891 11.3875 27.701 11.652 27.5135 11.9846C27.3261 12.3172 27.2491 12.7007 27.2935 13.0799C28.7637 25.3583 32.9963 53.4759 41.381 58.9777Z" fill="url(#paint5_linear)"/>
<path d="M115.901 57.51C115.378 46.1274 109.583 39.9939 105.741 37.1397C105.484 36.9506 105.286 36.6917 105.171 36.3935C105.056 36.0953 105.029 35.7704 105.093 35.4573C105.157 35.1442 105.309 34.856 105.532 34.6269C105.755 34.3978 106.039 34.2375 106.35 34.1648C112.288 32.8095 123.476 30.1448 131.234 27.5719C131.609 27.4476 132.011 27.4343 132.393 27.5335C132.774 27.6327 133.119 27.8401 133.386 28.1309C133.652 28.4217 133.829 28.7833 133.895 29.1722C133.96 29.5611 133.912 29.9607 133.756 30.3228C129.361 40.3173 123.326 49.5065 115.901 57.51Z" fill="url(#paint6_linear)"/>
<circle cx="79.255" cy="64.7635" r="34.745" fill="url(#paint7_radial)"/>
<path fill-rule="evenodd" clip-rule="evenodd" d="M63.0821 61.3717C63.1942 61.0531 63.5328 60.9122 63.8385 61.0569C64.8588 61.5401 66.6721 61.5087 68.5837 60.6973C70.4952 59.8859 71.7774 58.6033 72.1386 57.5337C72.2468 57.2133 72.5834 57.0676 72.8905 57.2082C73.1975 57.3489 73.3587 57.7227 73.2505 58.0431C72.741 59.5519 71.1371 61.0102 69.086 61.8808C67.035 62.7514 64.8719 62.8922 63.4325 62.2105C63.1269 62.0658 62.97 61.6902 63.0821 61.3717Z" fill="black"/>
<path fill-rule="evenodd" clip-rule="evenodd" d="M96.5433 56.6976C96.8652 56.5954 97.1816 56.7811 97.2499 57.1123C97.4781 58.2179 98.5944 59.6472 100.393 60.6855C102.191 61.7239 103.987 61.976 105.059 61.6207C105.38 61.5143 105.699 61.6955 105.771 62.0253C105.844 62.3552 105.642 62.7089 105.321 62.8153C103.809 63.3164 101.68 62.9131 99.75 61.799C97.8203 60.6849 96.4061 59.0421 96.0842 57.4823C96.0159 57.1512 96.2214 56.7998 96.5433 56.6976Z" fill="black"/>
<path fill-rule="evenodd" clip-rule="evenodd" d="M71.4549 88.9356C71.6135 88.9381 71.74 89.0687 71.7374 89.2273C71.6681 93.5709 72.8053 97.8486 75.0224 101.584C75.1034 101.721 75.0584 101.897 74.9221 101.978C74.7857 102.059 74.6095 102.014 74.5286 101.877C72.2572 98.0503 71.0922 93.668 71.1632 89.2181C71.1658 89.0595 71.2963 88.9331 71.4549 88.9356Z" fill="#B38206"/>
<path fill-rule="evenodd" clip-rule="evenodd" d="M85.7204 94.8965C85.8729 94.9403 85.9609 95.0993 85.9172 95.2517C85.0897 98.1334 83.9554 100.918 82.5337 103.558C82.4328 103.781 82.2775 103.976 82.0818 104.125C82.0777 104.128 82.0737 104.131 82.0695 104.134C81.9707 104.201 81.8673 104.192 81.8241 104.186C81.7717 104.179 81.7234 104.163 81.6855 104.147C81.608 104.116 81.5217 104.069 81.4367 104.017C81.2639 103.911 81.0548 103.761 80.8532 103.607C80.6912 103.484 80.5301 103.354 80.391 103.238C80.3136 103.704 80.2194 104.13 80.1295 104.537C80.0914 104.709 80.0541 104.878 80.0192 105.045C79.8699 105.758 79.7585 106.457 79.7889 107.314C79.7938 107.453 79.6985 107.576 79.5625 107.605C79.4265 107.635 79.2891 107.562 79.2363 107.434C78.8327 106.45 78.3672 105.492 77.892 104.528C77.842 104.427 77.7919 104.326 77.7418 104.224C77.3172 103.365 76.8894 102.499 76.5018 101.616C75.5456 99.6414 75.0087 97.4904 74.925 95.2983C74.919 95.1398 75.0425 95.0064 75.201 95.0004C75.3595 94.9943 75.4928 95.1179 75.4989 95.2764C75.5797 97.391 76.0979 99.466 77.021 101.37C77.0225 101.373 77.0241 101.377 77.0255 101.38C77.4081 102.252 77.8307 103.108 78.2569 103.97C78.3069 104.072 78.357 104.173 78.407 104.274C78.6985 104.865 78.9893 105.46 79.2657 106.064C79.3111 105.667 79.38 105.295 79.4571 104.927C79.4944 104.749 79.5333 104.573 79.5723 104.396C79.695 103.841 79.8191 103.279 79.9004 102.62C79.9151 102.501 80.0029 102.403 80.1203 102.376C80.2376 102.349 80.3595 102.397 80.4255 102.498C80.424 102.496 80.4231 102.495 80.4232 102.494C80.4237 102.494 80.4385 102.512 80.4821 102.553C80.5279 102.597 80.5904 102.653 80.6653 102.717C80.8149 102.846 81.0074 103.003 81.2016 103.151C81.397 103.3 81.5882 103.436 81.7364 103.527C81.7732 103.549 81.8051 103.568 81.8319 103.582C81.9077 103.505 81.9692 103.414 82.0131 103.315C82.0161 103.308 82.0194 103.301 82.023 103.295C83.4276 100.688 84.5481 97.9388 85.3652 95.0932C85.409 94.9408 85.568 94.8527 85.7204 94.8965Z" fill="#B38206"/>
<path fill-rule="evenodd" clip-rule="evenodd" d="M91.2257 88.7322C91.3794 88.7714 91.4721 88.9278 91.4328 89.0815C90.3543 93.3001 88.596 97.315 86.2268 100.968C86.1406 101.101 85.9627 101.139 85.8297 101.053C85.6966 100.967 85.6587 100.789 85.745 100.656C88.0802 97.0548 89.8133 93.0975 90.8764 88.9392C90.9157 88.7856 91.0721 88.6929 91.2257 88.7322Z" fill="#B38206"/>
<path d="M80.6907 53.938H89.3051C89.3051 53.938 89.5865 61.0822 85.2161 61.0822C80.8457 61.0822 80.6907 53.938 80.6907 53.938Z" fill="#252525"/>
<path fill-rule="evenodd" clip-rule="evenodd" d="M110.761 111.62C110.92 111.62 111.048 111.749 111.048 111.908C111.048 113.407 111.025 114.925 110.979 116.459C110.974 116.617 110.842 116.742 110.684 116.737C110.525 116.732 110.4 116.6 110.405 116.442C110.451 114.913 110.474 113.402 110.474 111.908C110.474 111.749 110.603 111.62 110.761 111.62Z" fill="#B38206"/>
<path fill-rule="evenodd" clip-rule="evenodd" d="M101.519 112.707C101.677 112.718 101.796 112.856 101.784 113.014C101.338 119.094 100.274 125.112 98.6097 130.977C98.1535 132.627 98.4479 133.899 99.1512 134.795C99.8612 135.699 101.02 136.259 102.362 136.408C105.048 136.707 108.364 135.345 109.927 132.007C109.994 131.863 110.165 131.801 110.308 131.868C110.452 131.936 110.514 132.107 110.447 132.25C108.77 135.832 105.206 137.302 102.299 136.979C100.844 136.817 99.5272 136.203 98.6996 135.149C97.8653 134.087 97.5596 132.619 98.0564 130.823L98.0569 130.821L98.0569 130.821C99.711 124.994 100.768 119.013 101.211 112.972C101.223 112.814 101.36 112.695 101.519 112.707Z" fill="#B38206"/>
<path fill-rule="evenodd" clip-rule="evenodd" d="M55.2856 111.816C55.444 111.808 55.5793 111.929 55.5878 112.087C55.835 116.697 56.6919 121.446 57.4436 125.612C57.7188 127.138 57.98 128.585 58.1919 129.918L58.1919 129.918C58.8403 134.002 56.889 137.489 54.2232 138.203C52.8752 138.564 51.3991 138.194 50.0751 136.902C48.7596 135.618 47.5915 133.426 46.7979 130.117L46.7978 130.116C45.8777 126.268 45.2913 119.518 44.9181 112.606C44.9096 112.448 45.031 112.313 45.1894 112.304C45.3478 112.296 45.4831 112.417 45.4916 112.576C45.8651 119.493 46.4502 126.193 47.3564 129.983C48.1363 133.235 49.2675 135.311 50.4762 136.491C51.6764 137.662 52.9494 137.949 54.0745 137.648C56.3548 137.037 58.2456 133.919 57.6247 130.009C57.4163 128.697 57.1578 127.264 56.8842 125.748C56.1309 121.573 55.2636 116.767 55.0143 112.118C55.0058 111.96 55.1273 111.825 55.2856 111.816Z" fill="#B38206"/>
<path fill-rule="evenodd" clip-rule="evenodd" d="M113.344 83.0763C113.497 83.0347 113.655 83.125 113.697 83.278L113.42 83.3534L113.143 83.4288C113.101 83.2757 113.191 83.1179 113.344 83.0763ZM113.42 83.3534C113.143 83.4288 113.143 83.4287 113.143 83.4288L113.145 83.438L113.153 83.4663C113.16 83.4914 113.17 83.529 113.183 83.5787C113.209 83.6781 113.248 83.8258 113.298 84.0183C113.397 84.4033 113.54 84.9675 113.714 85.6837C114.061 87.1161 114.532 89.1557 115.023 91.5833C116.006 96.4402 117.071 102.843 117.406 109.04C117.414 109.198 117.55 109.32 117.708 109.311C117.866 109.303 117.988 109.167 117.979 109.009C117.642 102.773 116.571 96.3396 115.586 91.4694C115.093 89.0334 114.621 86.9866 114.272 85.5483C114.098 84.8292 113.954 84.2622 113.854 83.8747C113.804 83.6809 113.765 83.532 113.738 83.4314C113.725 83.3811 113.714 83.3429 113.707 83.3172L113.7 83.2881L113.697 83.2787C113.697 83.2786 113.697 83.278 113.42 83.3534Z" fill="#B38206"/>
<path fill-rule="evenodd" clip-rule="evenodd" d="M110.259 131.99C110.26 131.99 110.26 131.99 109.99 132.051L110.26 131.99C110.295 132.144 110.198 132.298 110.044 132.334C109.889 132.369 109.735 132.273 109.7 132.118L109.98 132.054C109.7 132.118 109.7 132.118 109.7 132.117L109.699 132.116L109.698 132.11L109.693 132.09C109.689 132.072 109.684 132.045 109.676 132.011C109.661 131.941 109.64 131.839 109.615 131.707C109.563 131.443 109.493 131.059 109.419 130.577C109.27 129.613 109.102 128.255 109.029 126.676C108.881 123.525 109.106 119.467 110.617 115.912C112.134 112.343 114.95 109.281 119.952 108.163C124.934 107.05 132.048 107.872 142.162 111.957C142.309 112.017 142.38 112.184 142.32 112.331C142.261 112.478 142.094 112.549 141.947 112.49C131.879 108.423 124.894 107.647 120.078 108.724C115.282 109.796 112.602 112.711 111.146 116.137C109.683 119.577 109.457 123.535 109.602 126.649C109.675 128.203 109.84 129.541 109.986 130.489C110.059 130.963 110.128 131.34 110.178 131.597C110.203 131.726 110.224 131.825 110.238 131.891C110.245 131.924 110.25 131.949 110.254 131.966L110.258 131.984L110.259 131.989L110.259 131.99Z" fill="#B38206"/>
<path fill-rule="evenodd" clip-rule="evenodd" d="M131.757 108.91L131.576 108.687C131.453 108.786 131.434 108.967 131.534 109.09C131.634 109.214 131.814 109.233 131.938 109.133L131.938 109.133L131.938 109.133L131.939 109.132L131.945 109.127C131.95 109.123 131.959 109.116 131.97 109.108C131.993 109.09 132.028 109.064 132.074 109.03C132.166 108.962 132.304 108.864 132.482 108.748C132.839 108.516 133.357 108.209 134 107.915C135.288 107.326 137.062 106.793 139.034 106.99C139.191 107.006 139.332 106.891 139.348 106.733C139.364 106.575 139.249 106.434 139.091 106.419C136.985 106.208 135.106 106.778 133.761 107.393C133.088 107.701 132.544 108.022 132.168 108.267C131.98 108.39 131.834 108.493 131.734 108.567C131.684 108.604 131.645 108.633 131.619 108.653C131.606 108.663 131.595 108.671 131.588 108.677L131.58 108.684L131.578 108.686L131.577 108.686L131.577 108.686C131.577 108.686 131.576 108.687 131.757 108.91Z" fill="#B38206"/>
<mask id="mask0" mask-type="alpha" maskUnits="userSpaceOnUse" x="35" y="59" width="86" height="71">
<path fill-rule="evenodd" clip-rule="evenodd" d="M79.8309 60.0492C79.5978 65.1282 79.2634 72.4118 84.0707 69.0836C89.5588 72.8567 88.2702 63.0765 87.643 59.5002H120.738V129.5H35.7373V59.5002H79.8559C79.8479 59.6799 79.8395 59.8631 79.8309 60.0492Z" fill="#C4C4C4"/>
</mask>
<g mask="url(#mask0)">
<rect x="70.7571" y="61.0002" width="50.1329" height="50.1329" rx="16" transform="rotate(20.2513 70.7571 61.0002)" fill="url(#paint8_linear)"/>
<path d="M81.9026 103.115C81.9026 103.115 72.6642 93.7508 75.608 85.7717C76.9879 82.0318 81.0622 80.0905 84.7083 81.4357C86.4822 82.0902 87.8279 83.4019 88.5833 85.0072C90.2003 84.2772 92.0755 84.1538 93.8493 84.8083C97.4954 86.1535 99.3326 90.2758 97.9528 94.0157C95.009 101.995 81.9026 103.115 81.9026 103.115Z" fill="url(#paint9_linear)"/>
</g>
<path fill-rule="evenodd" clip-rule="evenodd" d="M118.628 75.4945C118.727 75.3704 118.707 75.1898 118.583 75.091C113.297 70.8814 106.926 68.6979 101.89 67.5654C99.3705 66.9987 97.1797 66.6941 95.618 66.5311C94.8371 66.4496 94.2131 66.4034 93.7837 66.3777C93.569 66.3648 93.4029 66.357 93.29 66.3524C93.2336 66.3501 93.1905 66.3486 93.1613 66.3477L93.128 66.3467L93.1193 66.3465L93.1163 66.3464C93.1161 66.3464 93.1159 66.3464 93.1094 66.6335L93.1029 66.9205L93.1049 66.9206L93.1124 66.9208L93.1432 66.9217C93.1707 66.9226 93.212 66.924 93.2667 66.9262C93.376 66.9307 93.5384 66.9383 93.7493 66.9509C94.1711 66.9763 94.7866 67.0217 95.5584 67.1023C97.1023 67.2635 99.2705 67.5649 101.764 68.1257C106.756 69.2484 113.033 71.4059 118.225 75.5402C118.349 75.639 118.53 75.6185 118.628 75.4945ZM92.8223 66.6269C92.8187 66.7855 92.9443 66.9169 93.1029 66.9205L93.1094 66.6335L93.1163 66.3464C92.9577 66.3428 92.8259 66.4684 92.8223 66.6269Z" fill="#252525"/>
<path fill-rule="evenodd" clip-rule="evenodd" d="M108.904 80.1053C109.038 80.0193 109.076 79.8416 108.99 79.7083C106.406 75.706 102.495 72.8094 99.2457 70.917C97.6189 69.9694 96.1527 69.2704 95.0926 68.8081C94.5624 68.5768 94.1334 68.4046 93.8363 68.29C93.6878 68.2327 93.5722 68.1898 93.4934 68.1611C93.4539 68.1467 93.4237 68.1359 93.4031 68.1286L93.3796 68.1203L93.3734 68.1181L93.3717 68.1175C93.3716 68.1175 93.3709 68.1173 93.2773 68.3887L93.3709 68.1173C93.221 68.0656 93.0576 68.1452 93.0059 68.2951C92.9541 68.445 93.0337 68.6084 93.1836 68.6602C93.1836 68.6602 93.1836 68.6602 93.1836 68.6602L93.185 68.6606L93.1901 68.6624L93.2113 68.6699C93.2303 68.6766 93.2589 68.6869 93.2967 68.7006C93.3723 68.7282 93.4846 68.7699 93.6296 68.8258C93.9197 68.9377 94.341 69.1068 94.863 69.3345C95.9071 69.7899 97.3528 70.479 98.9566 71.4132C102.169 73.2842 105.993 76.1254 108.507 80.0198C108.593 80.1531 108.771 80.1913 108.904 80.1053Z" fill="#252525"/>
<path fill-rule="evenodd" clip-rule="evenodd" d="M46.0315 77.4233C45.9243 77.3064 45.9321 77.1248 46.0489 77.0176C51.0285 72.4496 57.231 69.827 62.1755 68.346C64.6497 67.6049 66.814 67.1482 68.3604 66.8766C69.1338 66.7408 69.753 66.6513 70.1796 66.5956C70.3929 66.5678 70.5581 66.5484 70.6703 66.536C70.7264 66.5298 70.7693 66.5253 70.7984 66.5223L70.8316 66.519L70.8402 66.5182L70.8432 66.5179C70.8434 66.5179 70.8435 66.5179 70.8701 66.8038L70.8966 67.0897L70.8946 67.0899L70.8872 67.0906L70.8565 67.0937C70.8291 67.0964 70.788 67.1007 70.7336 67.1068C70.6249 67.1188 70.4634 67.1378 70.2539 67.1651C69.8349 67.2198 69.2241 67.3081 68.4598 67.4423C66.9309 67.7107 64.789 68.1627 62.3402 68.8961C57.4387 70.3643 51.3277 72.9544 46.4372 77.4408C46.3203 77.548 46.1387 77.5402 46.0315 77.4233ZM71.156 66.7772C71.1707 66.9351 71.0546 67.075 70.8966 67.0897L70.8701 66.8038L70.8432 66.5179C71.0011 66.5032 71.1413 66.6193 71.156 66.7772Z" fill="#252525"/>
<path fill-rule="evenodd" clip-rule="evenodd" d="M56.0533 81.3445C55.9144 81.2679 55.8638 81.0933 55.9403 80.9544C58.2387 76.7815 61.9384 73.6192 65.0475 71.5047C66.6042 70.446 68.018 69.6464 69.0433 69.1113C69.5561 68.8436 69.972 68.6419 70.2604 68.5069C70.4046 68.4393 70.5169 68.3884 70.5935 68.3543C70.6318 68.3372 70.6612 68.3243 70.6812 68.3156L70.7041 68.3057L70.7102 68.3031L70.7118 68.3024C70.712 68.3023 70.7126 68.3021 70.8249 68.5663L70.7126 68.3021C70.8585 68.24 71.0271 68.308 71.0892 68.454C71.1512 68.5999 71.0832 68.7685 70.9373 68.8306C70.9373 68.8306 70.9373 68.8306 70.9373 68.8306L70.936 68.8311L70.931 68.8333L70.9104 68.8422C70.8919 68.8502 70.8641 68.8625 70.8273 68.8788C70.7538 68.9116 70.6447 68.961 70.504 69.0269C70.2224 69.1588 69.8139 69.3569 69.3091 69.6204C68.2993 70.1475 66.9051 70.9358 65.3704 71.9796C62.2966 74.0702 58.6798 77.1711 56.4433 81.2315C56.3668 81.3704 56.1922 81.421 56.0533 81.3445Z" fill="#252525"/>
<path fill-rule="evenodd" clip-rule="evenodd" d="M87.6501 66.6644C87.6895 65.9333 87.6545 65.1812 87.5841 64.548L88.1549 64.4846C88.2281 65.1437 88.2649 65.9278 88.2235 66.6953C88.1824 67.4589 88.0629 68.2257 87.8123 68.8389C87.5627 69.4494 87.1576 69.9635 86.5173 70.1029C85.8892 70.2396 85.1385 69.991 84.2539 69.3423L84.5935 68.8791C85.4318 69.4939 86.0092 69.6257 86.3951 69.5417C86.7688 69.4604 87.0636 69.1525 87.2807 68.6216C87.4966 68.0934 87.6105 67.3993 87.6501 66.6644Z" fill="black"/>
<path fill-rule="evenodd" clip-rule="evenodd" d="M85.4055 56.0015C85.5557 55.987 85.6915 56.0779 85.7088 56.2046C86.294 60.4998 85.9958 64.8479 84.8273 69.0575C84.8141 69.105 84.7835 69.1477 84.7397 69.1796C84.3638 69.4535 83.8881 69.7154 83.3791 69.8668C82.8702 70.0182 82.3043 70.0653 81.7745 69.8758C81.2405 69.6847 80.7955 69.2721 80.4871 68.5948C80.1801 67.9206 80 66.9682 80 65.6601C80 65.5325 80.1226 65.4291 80.2738 65.4291C80.425 65.4291 80.5475 65.5325 80.5475 65.6601C80.5475 66.939 80.7247 67.8284 80.9982 68.4291C81.2703 69.0266 81.6291 69.322 81.9883 69.4505C82.3516 69.5804 82.7681 69.5587 83.1971 69.4311C83.5979 69.3119 83.9889 69.1057 84.3148 68.8779C85.4518 64.7432 85.7394 60.4745 85.1648 56.2574C85.1476 56.1307 85.2553 56.0161 85.4055 56.0015Z" fill="#252525"/>
<defs>
<linearGradient id="paint0_linear" x1="7.40405" y1="133.749" x2="76.5709" y2="133.749" gradientUnits="userSpaceOnUse">
<stop stop-color="#E3E3E3"/>
<stop offset="0.21988" stop-color="#99C2FF"/>
<stop offset="0.512048" stop-color="#F48DA5"/>
<stop offset="0.75" stop-color="#A699DC"/>
<stop offset="1" stop-color="#E3E3E3"/>
</linearGradient>
<linearGradient id="paint1_linear" x1="7.40405" y1="133.749" x2="76.5709" y2="133.749" gradientUnits="userSpaceOnUse">
<stop stop-color="#E3E3E3"/>
<stop offset="0.21988" stop-color="#99C2FF"/>
<stop offset="0.512048" stop-color="#F48DA5"/>
<stop offset="0.75" stop-color="#A699DC"/>
<stop offset="1" stop-color="#E3E3E3"/>
</linearGradient>
<linearGradient id="paint2_linear" x1="19.5942" y1="130.001" x2="64.3794" y2="130.001" gradientUnits="userSpaceOnUse">
<stop stop-color="#F9B400"/>
<stop offset="1" stop-color="#FF7B52"/>
</linearGradient>
<radialGradient id="paint3_radial" cx="0" cy="0" r="1" gradientUnits="userSpaceOnUse" gradientTransform="translate(64.4214 59.114) scale(18.8149 4.70372)">
<stop stop-color="#FF7B52"/>
<stop offset="1" stop-color="#FF7B52" stop-opacity="0"/>
</radialGradient>
<radialGradient id="paint4_radial" cx="0" cy="0" r="1" gradientUnits="userSpaceOnUse" gradientTransform="translate(98.8099 58.6989) rotate(90) scale(4.35317 14.9547)">
<stop stop-color="#FF7B52"/>
<stop offset="1" stop-color="#FF7B52" stop-opacity="0"/>
</radialGradient>
<linearGradient id="paint5_linear" x1="49.966" y1="29.157" x2="35.0343" y2="44.0887" gradientUnits="userSpaceOnUse">
<stop stop-color="#FF7B52"/>
<stop offset="1" stop-color="#FF7B52" stop-opacity="0"/>
</linearGradient>
<linearGradient id="paint6_linear" x1="116.24" y1="33.3206" x2="128.92" y2="47.6551" gradientUnits="userSpaceOnUse">
<stop stop-color="#FF7B52"/>
<stop offset="1" stop-color="#FF7B52" stop-opacity="0"/>
</linearGradient>
<radialGradient id="paint7_radial" cx="0" cy="0" r="1" gradientUnits="userSpaceOnUse" gradientTransform="translate(79.255 64.7635) rotate(90) scale(34.745)">
<stop stop-color="#FFE39C"/>
<stop offset="1" stop-color="#FFE39C" stop-opacity="0"/>
</radialGradient>
<linearGradient id="paint8_linear" x1="53.8604" y1="34.7243" x2="115.404" y2="104.751" gradientUnits="userSpaceOnUse">
<stop stop-color="#E6EEF9"/>
<stop offset="1" stop-color="#FFFDFD"/>
</linearGradient>
<linearGradient id="paint9_linear" x1="92.6404" y1="106.851" x2="77.5908" y2="78.8597" gradientUnits="userSpaceOnUse">
<stop stop-color="#DB3F4C"/>
<stop offset="1" stop-color="#FB8B41"/>
</linearGradient>
</defs>
</svg>
