<svg width="407" height="544" viewBox="0 0 407 544" fill="none" xmlns="http://www.w3.org/2000/svg">
<g clip-path="url(#clip0_5297_3947)">
<g opacity="0.4">
<g opacity="0.4">
<path opacity="0.5" d="M64.6892 181.7H10.7817V505H64.6892V181.7Z" fill="url(#paint0_linear_5297_3947)"/>
<path opacity="0.5" d="M68.7326 181.7H122.64V505H68.7326V181.7Z" fill="url(#paint1_linear_5297_3947)"/>
</g>
</g>
<path d="M33.3344 203.019C19.397 194.571 12.4284 190.348 11.1028 185.275C10.6747 183.637 10.6747 181.968 11.1028 180.33C12.4284 175.257 19.397 171.034 33.3344 162.586C47.2718 154.139 54.2405 149.915 62.6097 149.112C65.3125 148.853 68.066 148.853 70.7689 149.112C79.138 149.915 86.1067 154.139 100.044 162.586C113.981 171.034 120.95 175.257 122.276 180.33C122.704 181.968 122.704 183.637 122.276 185.275C120.95 190.348 113.981 194.571 100.044 203.019C86.1067 211.466 79.138 215.69 70.7689 216.493C68.066 216.752 65.3125 216.752 62.6097 216.493C54.2405 215.69 47.2718 211.466 33.3344 203.019Z" fill="url(#paint2_linear_5297_3947)"/>
<path d="M33.3344 203.019C19.397 194.571 12.4284 190.348 11.1028 185.275C10.6747 183.637 10.6747 181.968 11.1028 180.33C12.4284 175.257 19.397 171.034 33.3344 162.586C47.2718 154.139 54.2405 149.915 62.6097 149.112C65.3125 148.853 68.066 148.853 70.7689 149.112C79.138 149.915 86.1067 154.139 100.044 162.586C113.981 171.034 120.95 175.257 122.276 180.33C122.704 181.968 122.704 183.637 122.276 185.275C120.95 190.348 113.981 194.571 100.044 203.019C86.1067 211.466 79.138 215.69 70.7689 216.493C68.066 216.752 65.3125 216.752 62.6097 216.493C54.2405 215.69 47.2718 211.466 33.3344 203.019Z" fill="white" fill-opacity="0.6"/>
<path d="M10.7817 177.219H122.64V182.61H10.7817V177.219Z" fill="url(#paint3_linear_5297_3947)"/>
<path d="M10.7817 177.219H122.64V182.61H10.7817V177.219Z" fill="white" fill-opacity="0.6"/>
<path d="M48.2693 147.293L18.4404 165.373C8.25604 171.545 8.25604 181.553 18.4404 187.726L48.2693 205.805C58.4536 211.977 74.9657 211.977 85.15 205.805L114.979 187.726C125.163 181.553 125.163 171.545 114.979 165.373L85.15 147.293C74.9657 141.121 58.4536 141.121 48.2693 147.293Z" fill="white"/>
<path d="M70.1081 183.73C69.1246 184.326 68.6464 185.151 68.5367 185.991C68.2437 188.234 66.6816 190.428 63.8505 192.144C57.5346 195.972 47.2945 195.972 40.9786 192.144C34.6627 188.316 34.6627 182.109 40.9786 178.281L69.5685 160.953C75.8844 157.125 86.1245 157.125 92.4403 160.953C98.7562 164.781 98.7562 170.988 92.4403 174.816C89.6092 176.532 85.9896 177.478 82.2884 177.656C80.9019 177.723 79.5423 178.012 78.5588 178.608L70.1081 183.73Z" fill="url(#paint4_linear_5297_3947)"/>
<path d="M50.7078 181.868C50.0712 181.482 49.0392 181.482 48.4027 181.868L46.8958 182.781C46.2593 183.167 46.2593 183.793 46.8958 184.178L48.6022 185.213L46.8958 186.247C46.2593 186.633 46.2593 187.258 46.8958 187.644L48.4027 188.557C49.0392 188.943 50.0712 188.943 50.7078 188.557L52.4142 187.523L54.1207 188.557C54.7572 188.943 55.7892 188.943 56.4257 188.557L57.9327 187.644C58.5692 187.258 58.5692 186.633 57.9327 186.247L56.2262 185.213L57.9327 184.178C58.5692 183.793 58.5692 183.167 57.9327 182.781L56.4257 181.868C55.7892 181.482 54.7572 181.482 54.1207 181.868L52.4142 182.902L50.7078 181.868Z" fill="white"/>
<path d="M77.1925 168.561C78.6812 168.561 79.888 169.293 79.888 170.195C79.888 171.097 78.6812 171.829 77.1926 171.829C75.7039 171.829 74.4971 171.097 74.4971 170.195C74.4971 169.293 75.7039 168.561 77.1925 168.561Z" fill="#CBE9B3"/>
<path d="M77.1926 163.94C78.6812 163.94 79.888 164.672 79.888 165.574C79.888 166.476 78.6812 167.208 77.1926 167.208C75.7039 167.208 74.4971 166.476 74.4971 165.574C74.4971 164.672 75.7039 163.94 77.1926 163.94Z" fill="#99C2FF"/>
<path d="M84.8161 168.561C86.3048 168.561 87.5116 169.293 87.5116 170.195C87.5116 171.097 86.3048 171.829 84.8161 171.829C83.3274 171.829 82.1206 171.097 82.1206 170.195C82.1206 169.293 83.3274 168.561 84.8161 168.561Z" fill="#FFCF52"/>
<path d="M84.8161 163.94C86.3048 163.94 87.5116 164.672 87.5116 165.574C87.5116 166.476 86.3048 167.208 84.8161 167.208C83.3274 167.208 82.1206 166.476 82.1206 165.574C82.1206 164.672 83.3274 163.94 84.8161 163.94Z" fill="#FFB49C"/>
<path d="M64.3271 178.859C64.3271 178.38 64.9672 177.992 65.7566 177.992C66.5461 177.992 67.1861 178.38 67.1861 178.859V181.169C67.1861 181.648 66.5461 182.036 65.7566 182.036C64.9672 182.036 64.3271 181.648 64.3271 181.169V178.859Z" fill="white"/>
<path d="M70.0449 175.393C70.0449 174.915 70.6849 174.527 71.4744 174.527C72.2639 174.527 72.9039 174.915 72.9039 175.393V177.704C72.9039 178.182 72.2639 178.57 71.4744 178.57C70.6849 178.57 70.0449 178.182 70.0449 177.704V175.393Z" fill="white"/>
<g opacity="0.4">
<g opacity="0.4">
<path opacity="0.5" d="M322.097 299.964H268.19V544H322.097V299.964Z" fill="url(#paint5_linear_5297_3947)"/>
<path opacity="0.5" d="M326.14 299.964H380.048V544H326.14V299.964Z" fill="url(#paint6_linear_5297_3947)"/>
</g>
</g>
<path d="M290.743 322.963C276.805 314.515 269.837 310.292 268.511 305.219C268.083 303.581 268.083 301.912 268.511 300.274C269.837 295.202 276.805 290.978 290.743 282.531C304.68 274.083 311.649 269.86 320.018 269.056C322.721 268.797 325.474 268.797 328.177 269.056C336.546 269.86 343.515 274.083 357.452 282.531C371.39 290.978 378.358 295.202 379.684 300.274C380.112 301.912 380.112 303.581 379.684 305.219C378.358 310.292 371.39 314.515 357.452 322.963C343.515 331.41 336.546 335.634 328.177 336.437C325.474 336.697 322.721 336.697 320.018 336.437C311.649 335.634 304.68 331.41 290.743 322.963Z" fill="url(#paint7_linear_5297_3947)"/>
<path d="M290.743 322.963C276.805 314.515 269.837 310.292 268.511 305.219C268.083 303.581 268.083 301.912 268.511 300.274C269.837 295.202 276.805 290.978 290.743 282.531C304.68 274.083 311.649 269.86 320.018 269.056C322.721 268.797 325.474 268.797 328.177 269.056C336.546 269.86 343.515 274.083 357.452 282.531C371.39 290.978 378.358 295.202 379.684 300.274C380.112 301.912 380.112 303.581 379.684 305.219C378.358 310.292 371.39 314.515 357.452 322.963C343.515 331.41 336.546 335.634 328.177 336.437C325.474 336.697 322.721 336.697 320.018 336.437C311.649 335.634 304.68 331.41 290.743 322.963Z" fill="white" fill-opacity="0.6"/>
<path d="M268.19 297.163H380.048V302.554H268.19V297.163Z" fill="url(#paint8_linear_5297_3947)"/>
<path d="M268.19 297.163H380.048V302.554H268.19V297.163Z" fill="white" fill-opacity="0.6"/>
<path d="M305.677 267.237L275.849 285.316C265.664 291.489 265.664 301.497 275.849 307.669L305.677 325.749C315.862 331.921 332.374 331.921 342.558 325.749L372.387 307.669C382.571 301.497 382.571 291.489 372.387 285.316L342.558 267.237C332.374 261.065 315.862 261.065 305.677 267.237Z" fill="white"/>
<path fill-rule="evenodd" clip-rule="evenodd" d="M294.289 299.287L301.204 295.096L310.424 300.684L319.645 295.096L326.56 299.287L317.339 304.876L326.559 310.464L319.644 314.655L310.424 309.067L301.204 314.655L294.289 310.464L303.509 304.876L294.289 299.287ZM321.949 282.522L328.865 278.331L338.085 283.92L347.305 278.331L354.22 282.522L345 288.111L354.22 293.699L347.305 297.89L338.085 292.302L328.865 297.89L321.95 293.699L331.17 288.111L321.949 282.522Z" fill="url(#paint9_linear_5297_3947)"/>
<g opacity="0.4">
<g opacity="0.4">
<path opacity="0.5" d="M119.944 272.678H66.0366V544H119.944V272.678Z" fill="url(#paint10_linear_5297_3947)"/>
<path opacity="0.5" d="M123.988 272.678H177.895V544H123.988V272.678Z" fill="url(#paint11_linear_5297_3947)"/>
</g>
</g>
<path d="M88.5893 290.618C74.6519 282.171 67.6832 277.947 66.3577 272.875C65.9296 271.237 65.9296 269.568 66.3577 267.93C67.6832 262.857 74.6519 258.633 88.5893 250.186C102.527 241.739 109.495 237.515 117.865 236.712C120.567 236.452 123.321 236.452 126.024 236.712C134.393 237.515 141.362 241.739 155.299 250.186C169.236 258.633 176.205 262.857 177.531 267.93C177.959 269.568 177.959 271.237 177.531 272.875C176.205 277.947 169.236 282.171 155.299 290.618C141.362 299.066 134.393 303.289 126.024 304.093C123.321 304.352 120.567 304.352 117.865 304.093C109.495 303.289 102.527 299.066 88.5893 290.618Z" fill="url(#paint12_linear_5297_3947)"/>
<path d="M88.5893 290.618C74.6519 282.171 67.6832 277.947 66.3577 272.875C65.9296 271.237 65.9296 269.568 66.3577 267.93C67.6832 262.857 74.6519 258.633 88.5893 250.186C102.527 241.739 109.495 237.515 117.865 236.712C120.567 236.452 123.321 236.452 126.024 236.712C134.393 237.515 141.362 241.739 155.299 250.186C169.236 258.633 176.205 262.857 177.531 267.93C177.959 269.568 177.959 271.237 177.531 272.875C176.205 277.947 169.236 282.171 155.299 290.618C141.362 299.066 134.393 303.289 126.024 304.093C123.321 304.352 120.567 304.352 117.865 304.093C109.495 303.289 102.527 299.066 88.5893 290.618Z" fill="white" fill-opacity="0.6"/>
<path d="M66.0366 264.819H177.895V270.209H66.0366V264.819Z" fill="url(#paint13_linear_5297_3947)"/>
<path d="M66.0366 264.819H177.895V270.209H66.0366V264.819Z" fill="white" fill-opacity="0.6"/>
<path d="M103.525 234.892L73.6957 252.971C63.5114 259.144 63.5114 269.152 73.6957 275.325L103.525 293.404C113.709 299.576 130.221 299.576 140.405 293.404L170.234 275.325C180.419 269.152 180.419 259.144 170.234 252.971L140.405 234.892C130.221 228.72 113.709 228.72 103.525 234.892Z" fill="white"/>
<path d="M139.119 274.545C139.119 274.545 112.516 280.371 99.5848 272.533C93.5236 268.859 93.4003 262.978 99.3095 259.396C102.184 257.654 105.957 256.777 109.772 256.758C109.802 254.446 111.249 252.16 114.124 250.417C120.033 246.836 129.737 246.91 135.799 250.584C148.73 258.422 139.119 274.545 139.119 274.545Z" fill="url(#paint14_linear_5297_3947)"/>
<g opacity="0.4">
<g opacity="0.4">
<path opacity="0.5" d="M212.934 249.126H159.027V544H212.934V249.126Z" fill="url(#paint15_linear_5297_3947)"/>
<path opacity="0.5" d="M216.977 249.126H270.885V544H216.977V249.126Z" fill="url(#paint16_linear_5297_3947)"/>
</g>
</g>
<path d="M181.58 279.837C167.643 271.389 160.674 267.166 159.348 262.093C158.92 260.455 158.92 258.786 159.348 257.148C160.674 252.076 167.643 247.852 181.58 239.405C195.517 230.957 202.486 226.734 210.855 225.93C213.558 225.671 216.312 225.671 219.014 225.93C227.384 226.734 234.352 230.957 248.29 239.405C262.227 247.852 269.196 252.076 270.521 257.148C270.949 258.786 270.949 260.455 270.521 262.093C269.196 267.166 262.227 271.389 248.29 279.837C234.352 288.284 227.384 292.508 219.014 293.311C216.312 293.571 213.558 293.571 210.855 293.311C202.486 292.508 195.517 288.284 181.58 279.837Z" fill="url(#paint17_linear_5297_3947)"/>
<path d="M181.58 279.837C167.643 271.389 160.674 267.166 159.348 262.093C158.92 260.455 158.92 258.786 159.348 257.148C160.674 252.076 167.643 247.852 181.58 239.405C195.517 230.957 202.486 226.734 210.855 225.93C213.558 225.671 216.312 225.671 219.014 225.93C227.384 226.734 234.352 230.957 248.29 239.405C262.227 247.852 269.196 252.076 270.521 257.148C270.949 258.786 270.949 260.455 270.521 262.093C269.196 267.166 262.227 271.389 248.29 279.837C234.352 288.284 227.384 292.508 219.014 293.311C216.312 293.571 213.558 293.571 210.855 293.311C202.486 292.508 195.517 288.284 181.58 279.837Z" fill="white" fill-opacity="0.6"/>
<path d="M159.027 254.037H270.885V259.428H159.027V254.037Z" fill="url(#paint18_linear_5297_3947)"/>
<path d="M159.027 254.037H270.885V259.428H159.027V254.037Z" fill="white" fill-opacity="0.6"/>
<path d="M196.515 224.111L166.686 242.19C156.502 248.363 156.502 258.371 166.686 264.543L196.515 282.623C206.7 288.795 223.212 288.795 233.396 282.623L263.225 264.543C273.409 258.371 273.409 248.363 263.225 242.19L233.396 224.111C223.212 217.939 206.7 217.939 196.515 224.111Z" fill="white"/>
<path fill-rule="evenodd" clip-rule="evenodd" d="M181.442 253.367C181.442 255.004 183.615 256.321 187.962 258.955L205.735 269.728C210.082 272.362 212.255 273.679 214.956 273.679C217.656 273.679 219.829 272.362 224.176 269.728L241.949 258.955C246.296 256.321 248.469 255.004 248.469 253.367C248.469 251.73 246.296 250.413 241.949 247.779L224.176 237.006C219.829 234.372 217.656 233.055 214.956 233.055C212.255 233.055 210.082 234.372 205.735 237.006L187.962 247.779C183.615 250.413 181.442 251.73 181.442 253.367ZM222.58 248.746C226.79 251.298 226.79 255.436 222.58 257.988C218.369 260.54 211.542 260.54 207.332 257.988C203.121 255.436 203.121 251.298 207.332 248.746C211.542 246.194 218.369 246.194 222.58 248.746ZM226.392 246.436C232.707 250.264 232.707 256.47 226.392 260.298C220.076 264.126 209.836 264.126 203.52 260.298C197.204 256.47 197.204 250.264 203.52 246.436C209.836 242.608 220.076 242.608 226.392 246.436Z" fill="url(#paint19_linear_5297_3947)"/>
<g opacity="0.4">
<g opacity="0.4">
<path opacity="0.5" d="M242.583 201.286H188.676V544H242.583V201.286Z" fill="url(#paint20_linear_5297_3947)"/>
<path opacity="0.5" d="M246.626 201.286H300.534V544H246.626V201.286Z" fill="url(#paint21_linear_5297_3947)"/>
</g>
</g>
<path d="M211.229 224.582C197.292 216.134 190.323 211.911 188.997 206.838C188.569 205.2 188.569 203.531 188.997 201.893C190.323 196.82 197.292 192.597 211.229 184.149C225.166 175.702 232.135 171.478 240.504 170.675C243.207 170.416 245.961 170.416 248.663 170.675C257.033 171.478 264.001 175.702 277.939 184.149C291.876 192.597 298.845 196.82 300.17 201.893C300.598 203.531 300.598 205.2 300.17 206.838C298.845 211.911 291.876 216.134 277.939 224.582C264.001 233.029 257.033 237.253 248.663 238.056C245.961 238.315 243.207 238.315 240.504 238.056C232.135 237.253 225.166 233.029 211.229 224.582Z" fill="url(#paint22_linear_5297_3947)"/>
<path d="M211.229 224.582C197.292 216.134 190.323 211.911 188.997 206.838C188.569 205.2 188.569 203.531 188.997 201.893C190.323 196.82 197.292 192.597 211.229 184.149C225.166 175.702 232.135 171.478 240.504 170.675C243.207 170.416 245.961 170.416 248.663 170.675C257.033 171.478 264.001 175.702 277.939 184.149C291.876 192.597 298.845 196.82 300.17 201.893C300.598 203.531 300.598 205.2 300.17 206.838C298.845 211.911 291.876 216.134 277.939 224.582C264.001 233.029 257.033 237.253 248.663 238.056C245.961 238.315 243.207 238.315 240.504 238.056C232.135 237.253 225.166 233.029 211.229 224.582Z" fill="white" fill-opacity="0.6"/>
<path d="M188.676 198.782H300.534V204.173H188.676V198.782Z" fill="url(#paint23_linear_5297_3947)"/>
<path d="M188.676 198.782H300.534V204.173H188.676V198.782Z" fill="white" fill-opacity="0.6"/>
<path d="M226.164 168.856L196.335 186.936C186.151 193.108 186.151 203.116 196.335 209.289L226.164 227.368C236.349 233.54 252.861 233.54 263.045 227.368L292.874 209.289C303.058 203.116 303.058 193.108 292.874 186.936L263.045 168.856C252.861 162.684 236.349 162.684 226.164 168.856Z" fill="white"/>
<path fill-rule="evenodd" clip-rule="evenodd" d="M216.968 194.068L239.839 177.895L242.222 179.339L249.369 183.671L269.859 196.09L269.842 196.1C272.59 197.499 273.101 200.285 270.884 202.647C268.459 205.231 263.687 206.33 260.226 205.101C256.765 203.872 255.925 200.781 258.35 198.197C259.554 196.914 261.337 195.998 263.25 195.55L246.73 185.538L229.137 197.978L249.846 210.53H249.811C252.575 211.927 253.093 214.719 250.871 217.087C248.446 219.671 243.674 220.77 240.213 219.541C236.752 218.312 235.912 215.221 238.338 212.637C239.542 211.354 241.324 210.437 243.237 209.99L226.498 199.844H226.497L216.968 194.068Z" fill="url(#paint24_linear_5297_3947)"/>
<g opacity="0.4">
<g opacity="0.4">
<path opacity="0.5" d="M331.532 187.368H277.624V544H331.532V187.368Z" fill="url(#paint25_linear_5297_3947)"/>
<path opacity="0.5" d="M335.574 187.368H389.482V544H335.574V187.368Z" fill="url(#paint26_linear_5297_3947)"/>
</g>
</g>
<path d="M300.176 211.105C286.239 202.658 279.27 198.434 277.945 193.362C277.517 191.723 277.517 190.055 277.945 188.416C279.27 183.344 286.239 179.12 300.176 170.673C314.114 162.226 321.082 158.002 329.451 157.199C332.154 156.939 334.908 156.939 337.611 157.199C345.98 158.002 352.948 162.226 366.886 170.673C380.823 179.12 387.792 183.344 389.118 188.416C389.546 190.055 389.546 191.723 389.118 193.362C387.792 198.434 380.823 202.658 366.886 211.105C352.948 219.552 345.98 223.776 337.611 224.579C334.908 224.839 332.154 224.839 329.451 224.579C321.082 223.776 314.114 219.552 300.176 211.105Z" fill="url(#paint27_linear_5297_3947)"/>
<path d="M300.176 211.105C286.239 202.658 279.27 198.434 277.945 193.362C277.517 191.723 277.517 190.055 277.945 188.416C279.27 183.344 286.239 179.12 300.176 170.673C314.114 162.226 321.082 158.002 329.451 157.199C332.154 156.939 334.908 156.939 337.611 157.199C345.98 158.002 352.948 162.226 366.886 170.673C380.823 179.12 387.792 183.344 389.118 188.416C389.546 190.055 389.546 191.723 389.118 193.362C387.792 198.434 380.823 202.658 366.886 211.105C352.948 219.552 345.98 223.776 337.611 224.579C334.908 224.839 332.154 224.839 329.451 224.579C321.082 223.776 314.114 219.552 300.176 211.105Z" fill="white" fill-opacity="0.6"/>
<path d="M277.624 185.305H389.482V190.696H277.624V185.305Z" fill="url(#paint28_linear_5297_3947)"/>
<path d="M277.624 185.305H389.482V190.696H277.624V185.305Z" fill="white" fill-opacity="0.6"/>
<path d="M315.111 155.379L285.282 173.458C275.098 179.631 275.098 189.639 285.282 195.812L315.111 213.891C325.295 220.063 341.807 220.063 351.992 213.891L381.821 195.812C392.005 189.639 392.005 179.631 381.821 173.458L351.992 155.379C341.807 149.207 325.295 149.207 315.111 155.379Z" fill="white"/>
<path fill-rule="evenodd" clip-rule="evenodd" d="M348.799 193.877C359.852 187.177 363.264 178.384 352.611 171.928C341.959 165.471 327.45 167.539 316.398 174.238C305.345 180.937 301.933 189.73 312.586 196.187C317.429 199.123 323.07 200.296 328.82 200.073L332.598 208.316L337.943 198.6C341.744 197.528 345.432 195.917 348.799 193.877Z" fill="url(#paint29_linear_5297_3947)"/>
<g opacity="0.4">
<g opacity="0.4">
<path opacity="0.5" d="M287.057 114.347H233.15V544H287.057V114.347Z" fill="url(#paint30_linear_5297_3947)"/>
<path opacity="0.5" d="M291.1 114.347H345.008V544H291.1V114.347Z" fill="url(#paint31_linear_5297_3947)"/>
</g>
</g>
<path d="M255.703 138.33C241.765 129.882 234.797 125.659 233.471 120.586C233.043 118.948 233.043 117.279 233.471 115.641C234.797 110.569 241.765 106.345 255.703 97.8975C269.64 89.4502 276.609 85.2265 284.978 84.4231C287.681 84.1636 290.434 84.1636 293.137 84.4231C301.506 85.2265 308.475 89.4502 322.412 97.8975C336.35 106.345 343.318 110.569 344.644 115.641C345.072 117.279 345.072 118.948 344.644 120.586C343.318 125.659 336.35 129.882 322.412 138.33C308.475 146.777 301.506 151.001 293.137 151.804C290.434 152.064 287.681 152.064 284.978 151.804C276.609 151.001 269.64 146.777 255.703 138.33Z" fill="url(#paint32_linear_5297_3947)"/>
<path d="M255.703 138.33C241.765 129.882 234.797 125.659 233.471 120.586C233.043 118.948 233.043 117.279 233.471 115.641C234.797 110.569 241.765 106.345 255.703 97.8975C269.64 89.4502 276.609 85.2265 284.978 84.4231C287.681 84.1636 290.434 84.1636 293.137 84.4231C301.506 85.2265 308.475 89.4502 322.412 97.8975C336.35 106.345 343.318 110.569 344.644 115.641C345.072 117.279 345.072 118.948 344.644 120.586C343.318 125.659 336.35 129.882 322.412 138.33C308.475 146.777 301.506 151.001 293.137 151.804C290.434 152.064 287.681 152.064 284.978 151.804C276.609 151.001 269.64 146.777 255.703 138.33Z" fill="white" fill-opacity="0.6"/>
<path d="M233.15 112.53H345.008V117.921H233.15V112.53Z" fill="url(#paint33_linear_5297_3947)"/>
<path d="M233.15 112.53H345.008V117.921H233.15V112.53Z" fill="white" fill-opacity="0.6"/>
<path d="M270.638 82.6045L240.81 100.684C230.625 106.856 230.625 116.864 240.81 123.037L270.638 141.116C280.823 147.288 297.335 147.288 307.519 141.116L337.348 123.037C347.532 116.864 347.532 106.856 337.348 100.684L307.519 82.6045C297.335 76.4319 280.823 76.4319 270.638 82.6045Z" fill="white"/>
<path fill-rule="evenodd" clip-rule="evenodd" d="M261.707 121.698C262.633 122.297 263.659 122.96 264.789 123.708L269.53 126.581C276.05 130.533 279.309 132.509 283.36 132.509C287.411 132.509 290.671 130.533 297.19 126.581L313.368 116.776C319.887 112.825 323.147 110.849 323.147 108.394C323.147 105.939 319.887 103.963 313.368 100.012L308.626 97.1379C302.107 93.1864 298.847 91.2107 294.796 91.2107C290.745 91.2107 287.486 93.1864 280.966 97.1379L264.789 106.943C258.269 110.894 255.009 112.87 255.009 115.325C255.009 117.367 257.134 118.741 261.707 121.698ZM297.655 106.661L274.783 111.282L290.031 120.524L297.655 106.661Z" fill="url(#paint34_linear_5297_3947)"/>
<g opacity="0.4">
<g opacity="0.4">
<path opacity="0.5" d="M338.269 47.1501H284.362V544H338.269V47.1501Z" fill="url(#paint35_linear_5297_3947)"/>
<path opacity="0.5" d="M342.312 47.1501H396.22V544H342.312V47.1501Z" fill="url(#paint36_linear_5297_3947)"/>
</g>
</g>
<path d="M306.915 66.9022C292.978 58.4548 286.009 54.2312 284.683 49.1587C284.255 47.5205 284.255 45.8517 284.683 44.2135C286.009 39.141 292.978 34.9174 306.915 26.47C320.852 18.0227 327.821 13.799 336.19 12.9956C338.893 12.7362 341.647 12.7362 344.349 12.9956C352.719 13.799 359.687 18.0227 373.625 26.47C387.562 34.9174 394.531 39.141 395.856 44.2135C396.284 45.8517 396.284 47.5205 395.856 49.1587C394.531 54.2312 387.562 58.4548 373.625 66.9022C359.687 75.3495 352.719 79.5732 344.349 80.3766C341.647 80.636 338.893 80.636 336.19 80.3766C327.821 79.5732 320.852 75.3495 306.915 66.9022Z" fill="url(#paint37_linear_5297_3947)"/>
<path d="M306.915 66.9022C292.978 58.4548 286.009 54.2312 284.683 49.1587C284.255 47.5205 284.255 45.8517 284.683 44.2135C286.009 39.141 292.978 34.9174 306.915 26.47C320.852 18.0227 327.821 13.799 336.19 12.9956C338.893 12.7362 341.647 12.7362 344.349 12.9956C352.719 13.799 359.687 18.0227 373.625 26.47C387.562 34.9174 394.531 39.141 395.856 44.2135C396.284 45.8517 396.284 47.5205 395.856 49.1587C394.531 54.2312 387.562 58.4548 373.625 66.9022C359.687 75.3495 352.719 79.5732 344.349 80.3766C341.647 80.636 338.893 80.636 336.19 80.3766C327.821 79.5732 320.852 75.3495 306.915 66.9022Z" fill="white" fill-opacity="0.6"/>
<path d="M284.362 41.1025H396.22V46.4932H284.362V41.1025Z" fill="url(#paint38_linear_5297_3947)"/>
<path d="M284.362 41.1025H396.22V46.4932H284.362V41.1025Z" fill="white" fill-opacity="0.6"/>
<path d="M321.85 11.1765L292.021 29.2556C281.837 35.4282 281.837 45.436 292.021 51.6087L321.85 69.6877C332.035 75.8604 348.547 75.8604 358.731 69.6877L388.56 51.6087C398.744 45.436 398.744 35.4282 388.56 29.2556L358.731 11.1765C348.547 5.0039 332.035 5.0039 321.85 11.1765Z" fill="white"/>
<path d="M360.303 52.5618C371.356 45.8628 371.356 35.0015 360.303 28.3025C349.25 21.6035 331.33 21.6035 320.277 28.3025C309.224 35.0015 309.224 45.8628 320.277 52.5618C331.33 59.2608 349.25 59.2608 360.303 52.5618Z" fill="url(#paint39_radial_5297_3947)"/>
<mask id="mask0_5297_3947" style="mask-type:alpha" maskUnits="userSpaceOnUse" x="322" y="29" width="59" height="36">
<path d="M362.21 29.4575L322.184 53.7168L340.291 64.6913L380.317 40.432L362.21 29.4575Z" fill="#C4C4C4"/>
</mask>
<g mask="url(#mask0_5297_3947)">
<path d="M360.303 52.5618C371.356 45.8628 371.356 35.0015 360.303 28.3025C349.25 21.6035 331.33 21.6035 320.277 28.3025C309.224 35.0015 309.224 45.8628 320.277 52.5618C331.33 59.2608 349.25 59.2608 360.303 52.5618Z" fill="url(#paint40_radial_5297_3947)"/>
</g>
<mask id="mask1_5297_3947" style="mask-type:alpha" maskUnits="userSpaceOnUse" x="319" y="27" width="44" height="27">
<path fill-rule="evenodd" clip-rule="evenodd" d="M345.941 35.8524L359.35 27.7251L362.209 29.4579L348.591 37.7116C350.527 39.8788 349.983 42.6439 346.962 44.4755C343.94 46.3071 339.377 46.6363 335.802 45.4632L322.183 53.7172L319.324 51.9844L332.734 43.8569C329.964 41.6172 330.259 38.4259 333.62 36.3891C336.98 34.3522 342.246 34.1733 345.941 35.8524Z" fill="#C4C4C4"/>
</mask>
<g mask="url(#mask1_5297_3947)">
<path d="M360.303 52.5618C371.356 45.8628 371.356 35.0015 360.303 28.3025C349.25 21.6035 331.33 21.6035 320.277 28.3025C309.224 35.0015 309.224 45.8628 320.277 52.5618C331.33 59.2608 349.25 59.2608 360.303 52.5618Z" fill="url(#paint41_radial_5297_3947)"/>
</g>
</g>
<defs>
<linearGradient id="paint0_linear_5297_3947" x1="64.6893" y1="272.139" x2="10.7817" y2="272.139" gradientUnits="userSpaceOnUse">
<stop stop-color="white" stop-opacity="0"/>
<stop offset="1" stop-color="white"/>
</linearGradient>
<linearGradient id="paint1_linear_5297_3947" x1="68.7326" y1="272.139" x2="122.64" y2="272.139" gradientUnits="userSpaceOnUse">
<stop stop-color="white" stop-opacity="0"/>
<stop offset="1" stop-color="white"/>
</linearGradient>
<linearGradient id="paint2_linear_5297_3947" x1="10.7817" y1="182.61" x2="122.64" y2="182.61" gradientUnits="userSpaceOnUse">
<stop stop-color="#E3E3E3"/>
<stop offset="0.21988" stop-color="#99C2FF"/>
<stop offset="0.512048" stop-color="#F48DA5"/>
<stop offset="0.75" stop-color="#A699DC"/>
<stop offset="1" stop-color="#E3E3E3"/>
</linearGradient>
<linearGradient id="paint3_linear_5297_3947" x1="10.7817" y1="182.61" x2="122.64" y2="182.61" gradientUnits="userSpaceOnUse">
<stop stop-color="#E3E3E3"/>
<stop offset="0.21988" stop-color="#99C2FF"/>
<stop offset="0.512048" stop-color="#F48DA5"/>
<stop offset="0.75" stop-color="#A699DC"/>
<stop offset="1" stop-color="#E3E3E3"/>
</linearGradient>
<linearGradient id="paint4_linear_5297_3947" x1="29.5427" y1="185.213" x2="90.3753" y2="146.609" gradientUnits="userSpaceOnUse">
<stop stop-color="#A699DC"/>
<stop offset="1" stop-color="#644CC1"/>
</linearGradient>
<linearGradient id="paint5_linear_5297_3947" x1="322.097" y1="368.23" x2="268.19" y2="368.23" gradientUnits="userSpaceOnUse">
<stop stop-color="white" stop-opacity="0"/>
<stop offset="1" stop-color="white"/>
</linearGradient>
<linearGradient id="paint6_linear_5297_3947" x1="326.14" y1="368.229" x2="380.048" y2="368.229" gradientUnits="userSpaceOnUse">
<stop stop-color="white" stop-opacity="0"/>
<stop offset="1" stop-color="white"/>
</linearGradient>
<linearGradient id="paint7_linear_5297_3947" x1="268.19" y1="302.554" x2="380.048" y2="302.554" gradientUnits="userSpaceOnUse">
<stop stop-color="#E3E3E3"/>
<stop offset="0.21988" stop-color="#99C2FF"/>
<stop offset="0.512048" stop-color="#F48DA5"/>
<stop offset="0.75" stop-color="#A699DC"/>
<stop offset="1" stop-color="#E3E3E3"/>
</linearGradient>
<linearGradient id="paint8_linear_5297_3947" x1="268.19" y1="302.554" x2="380.048" y2="302.554" gradientUnits="userSpaceOnUse">
<stop stop-color="#E3E3E3"/>
<stop offset="0.21988" stop-color="#99C2FF"/>
<stop offset="0.512048" stop-color="#F48DA5"/>
<stop offset="0.75" stop-color="#A699DC"/>
<stop offset="1" stop-color="#E3E3E3"/>
</linearGradient>
<linearGradient id="paint9_linear_5297_3947" x1="279.306" y1="308.368" x2="359.089" y2="260.789" gradientUnits="userSpaceOnUse">
<stop stop-color="#A4D979"/>
<stop offset="1" stop-color="#7DCA40"/>
</linearGradient>
<linearGradient id="paint10_linear_5297_3947" x1="119.944" y1="348.577" x2="66.0366" y2="348.577" gradientUnits="userSpaceOnUse">
<stop stop-color="white" stop-opacity="0"/>
<stop offset="1" stop-color="white"/>
</linearGradient>
<linearGradient id="paint11_linear_5297_3947" x1="123.988" y1="348.576" x2="177.895" y2="348.576" gradientUnits="userSpaceOnUse">
<stop stop-color="white" stop-opacity="0"/>
<stop offset="1" stop-color="white"/>
</linearGradient>
<linearGradient id="paint12_linear_5297_3947" x1="66.0366" y1="270.209" x2="177.895" y2="270.209" gradientUnits="userSpaceOnUse">
<stop stop-color="#E3E3E3"/>
<stop offset="0.21988" stop-color="#99C2FF"/>
<stop offset="0.512048" stop-color="#F48DA5"/>
<stop offset="0.75" stop-color="#A699DC"/>
<stop offset="1" stop-color="#E3E3E3"/>
</linearGradient>
<linearGradient id="paint13_linear_5297_3947" x1="66.0366" y1="270.209" x2="177.895" y2="270.209" gradientUnits="userSpaceOnUse">
<stop stop-color="#E3E3E3"/>
<stop offset="0.21988" stop-color="#99C2FF"/>
<stop offset="0.512048" stop-color="#F48DA5"/>
<stop offset="0.75" stop-color="#A699DC"/>
<stop offset="1" stop-color="#E3E3E3"/>
</linearGradient>
<linearGradient id="paint14_linear_5297_3947" x1="156.081" y1="263.875" x2="88.3107" y2="270.745" gradientUnits="userSpaceOnUse">
<stop stop-color="#FF7B52"/>
<stop offset="1" stop-color="#FFB49C"/>
</linearGradient>
<linearGradient id="paint15_linear_5297_3947" x1="212.935" y1="331.613" x2="159.027" y2="331.613" gradientUnits="userSpaceOnUse">
<stop stop-color="white" stop-opacity="0"/>
<stop offset="1" stop-color="white"/>
</linearGradient>
<linearGradient id="paint16_linear_5297_3947" x1="216.977" y1="331.613" x2="270.885" y2="331.613" gradientUnits="userSpaceOnUse">
<stop stop-color="white" stop-opacity="0"/>
<stop offset="1" stop-color="white"/>
</linearGradient>
<linearGradient id="paint17_linear_5297_3947" x1="159.027" y1="259.428" x2="270.885" y2="259.428" gradientUnits="userSpaceOnUse">
<stop stop-color="#E3E3E3"/>
<stop offset="0.21988" stop-color="#99C2FF"/>
<stop offset="0.512048" stop-color="#F48DA5"/>
<stop offset="0.75" stop-color="#A699DC"/>
<stop offset="1" stop-color="#E3E3E3"/>
</linearGradient>
<linearGradient id="paint18_linear_5297_3947" x1="159.027" y1="259.428" x2="270.885" y2="259.428" gradientUnits="userSpaceOnUse">
<stop stop-color="#E3E3E3"/>
<stop offset="0.21988" stop-color="#99C2FF"/>
<stop offset="0.512048" stop-color="#F48DA5"/>
<stop offset="0.75" stop-color="#A699DC"/>
<stop offset="1" stop-color="#E3E3E3"/>
</linearGradient>
<linearGradient id="paint19_linear_5297_3947" x1="178.742" y1="253.367" x2="251.169" y2="253.367" gradientUnits="userSpaceOnUse">
<stop stop-color="#F9B400"/>
<stop offset="1" stop-color="#FF7B52"/>
</linearGradient>
<linearGradient id="paint20_linear_5297_3947" x1="242.584" y1="297.155" x2="188.676" y2="297.155" gradientUnits="userSpaceOnUse">
<stop stop-color="white" stop-opacity="0"/>
<stop offset="1" stop-color="white"/>
</linearGradient>
<linearGradient id="paint21_linear_5297_3947" x1="246.626" y1="297.155" x2="300.534" y2="297.155" gradientUnits="userSpaceOnUse">
<stop stop-color="white" stop-opacity="0"/>
<stop offset="1" stop-color="white"/>
</linearGradient>
<linearGradient id="paint22_linear_5297_3947" x1="188.676" y1="204.173" x2="300.534" y2="204.173" gradientUnits="userSpaceOnUse">
<stop stop-color="#E3E3E3"/>
<stop offset="0.21988" stop-color="#99C2FF"/>
<stop offset="0.512048" stop-color="#F48DA5"/>
<stop offset="0.75" stop-color="#A699DC"/>
<stop offset="1" stop-color="#E3E3E3"/>
</linearGradient>
<linearGradient id="paint23_linear_5297_3947" x1="188.676" y1="204.173" x2="300.534" y2="204.173" gradientUnits="userSpaceOnUse">
<stop stop-color="#E3E3E3"/>
<stop offset="0.21988" stop-color="#99C2FF"/>
<stop offset="0.512048" stop-color="#F48DA5"/>
<stop offset="0.75" stop-color="#A699DC"/>
<stop offset="1" stop-color="#E3E3E3"/>
</linearGradient>
<linearGradient id="paint24_linear_5297_3947" x1="204.579" y1="199.267" x2="277.768" y2="203.972" gradientUnits="userSpaceOnUse">
<stop stop-color="#FFCF52"/>
<stop offset="1" stop-color="#F48DA5"/>
</linearGradient>
<linearGradient id="paint25_linear_5297_3947" x1="331.532" y1="287.13" x2="277.624" y2="287.13" gradientUnits="userSpaceOnUse">
<stop stop-color="white" stop-opacity="0"/>
<stop offset="1" stop-color="white"/>
</linearGradient>
<linearGradient id="paint26_linear_5297_3947" x1="335.574" y1="287.131" x2="389.482" y2="287.131" gradientUnits="userSpaceOnUse">
<stop stop-color="white" stop-opacity="0"/>
<stop offset="1" stop-color="white"/>
</linearGradient>
<linearGradient id="paint27_linear_5297_3947" x1="277.624" y1="190.696" x2="389.482" y2="190.696" gradientUnits="userSpaceOnUse">
<stop stop-color="#E3E3E3"/>
<stop offset="0.21988" stop-color="#99C2FF"/>
<stop offset="0.512048" stop-color="#F48DA5"/>
<stop offset="0.75" stop-color="#A699DC"/>
<stop offset="1" stop-color="#E3E3E3"/>
</linearGradient>
<linearGradient id="paint28_linear_5297_3947" x1="277.624" y1="190.696" x2="389.482" y2="190.696" gradientUnits="userSpaceOnUse">
<stop stop-color="#E3E3E3"/>
<stop offset="0.21988" stop-color="#99C2FF"/>
<stop offset="0.512048" stop-color="#F48DA5"/>
<stop offset="0.75" stop-color="#A699DC"/>
<stop offset="1" stop-color="#E3E3E3"/>
</linearGradient>
<linearGradient id="paint29_linear_5297_3947" x1="316.398" y1="174.238" x2="335.856" y2="206.342" gradientUnits="userSpaceOnUse">
<stop stop-color="#99C2FF"/>
<stop offset="1" stop-color="#4C94FF"/>
</linearGradient>
<linearGradient id="paint30_linear_5297_3947" x1="287.057" y1="234.537" x2="233.15" y2="234.537" gradientUnits="userSpaceOnUse">
<stop stop-color="white" stop-opacity="0"/>
<stop offset="1" stop-color="white"/>
</linearGradient>
<linearGradient id="paint31_linear_5297_3947" x1="291.1" y1="234.536" x2="345.008" y2="234.536" gradientUnits="userSpaceOnUse">
<stop stop-color="white" stop-opacity="0"/>
<stop offset="1" stop-color="white"/>
</linearGradient>
<linearGradient id="paint32_linear_5297_3947" x1="233.15" y1="117.921" x2="345.008" y2="117.921" gradientUnits="userSpaceOnUse">
<stop stop-color="#E3E3E3"/>
<stop offset="0.21988" stop-color="#99C2FF"/>
<stop offset="0.512048" stop-color="#F48DA5"/>
<stop offset="0.75" stop-color="#A699DC"/>
<stop offset="1" stop-color="#E3E3E3"/>
</linearGradient>
<linearGradient id="paint33_linear_5297_3947" x1="233.15" y1="117.921" x2="345.008" y2="117.921" gradientUnits="userSpaceOnUse">
<stop stop-color="#E3E3E3"/>
<stop offset="0.21988" stop-color="#99C2FF"/>
<stop offset="0.512048" stop-color="#F48DA5"/>
<stop offset="0.75" stop-color="#A699DC"/>
<stop offset="1" stop-color="#E3E3E3"/>
</linearGradient>
<linearGradient id="paint34_linear_5297_3947" x1="250.958" y1="115.325" x2="324.414" y2="97.1458" gradientUnits="userSpaceOnUse">
<stop stop-color="#FFB49C"/>
<stop offset="1" stop-color="#EF5C7F"/>
</linearGradient>
<linearGradient id="paint35_linear_5297_3947" x1="338.27" y1="186.137" x2="284.362" y2="186.137" gradientUnits="userSpaceOnUse">
<stop stop-color="white" stop-opacity="0"/>
<stop offset="1" stop-color="white"/>
</linearGradient>
<linearGradient id="paint36_linear_5297_3947" x1="342.312" y1="186.137" x2="396.22" y2="186.137" gradientUnits="userSpaceOnUse">
<stop stop-color="white" stop-opacity="0"/>
<stop offset="1" stop-color="white"/>
</linearGradient>
<linearGradient id="paint37_linear_5297_3947" x1="284.362" y1="46.4932" x2="396.22" y2="46.4932" gradientUnits="userSpaceOnUse">
<stop stop-color="#E3E3E3"/>
<stop offset="0.21988" stop-color="#99C2FF"/>
<stop offset="0.512048" stop-color="#F48DA5"/>
<stop offset="0.75" stop-color="#A699DC"/>
<stop offset="1" stop-color="#E3E3E3"/>
</linearGradient>
<linearGradient id="paint38_linear_5297_3947" x1="284.362" y1="46.4932" x2="396.22" y2="46.4932" gradientUnits="userSpaceOnUse">
<stop stop-color="#E3E3E3"/>
<stop offset="0.21988" stop-color="#99C2FF"/>
<stop offset="0.512048" stop-color="#F48DA5"/>
<stop offset="0.75" stop-color="#A699DC"/>
<stop offset="1" stop-color="#E3E3E3"/>
</linearGradient>
<radialGradient id="paint39_radial_5297_3947" cx="0" cy="0" r="1" gradientUnits="userSpaceOnUse" gradientTransform="translate(369.356 39.5658) rotate(0.973544) scale(50.9926 30.9216)">
<stop stop-color="#FFB49C"/>
<stop offset="1" stop-color="#FF7B52"/>
</radialGradient>
<radialGradient id="paint40_radial_5297_3947" cx="0" cy="0" r="1" gradientUnits="userSpaceOnUse" gradientTransform="translate(369.356 39.5658) rotate(0.973544) scale(50.9926 30.9216)">
<stop stop-color="white"/>
<stop offset="1" stop-color="#E3E3E3"/>
</radialGradient>
<radialGradient id="paint41_radial_5297_3947" cx="0" cy="0" r="1" gradientUnits="userSpaceOnUse" gradientTransform="translate(369.356 39.5658) rotate(0.973544) scale(50.9926 30.9216)">
<stop stop-color="#818181"/>
<stop offset="1"/>
</radialGradient>
<clipPath id="clip0_5297_3947">
<rect width="407" height="544" fill="white"/>
</clipPath>
</defs>
</svg>
